<svg id="visual" viewBox="0 0 300 100" width="300" height="100" xmlns="http://www.w3.org/2000/svg" xmlns:xlink="http://www.w3.org/1999/xlink" version="1.1"><path d="M0 24L7.2 22.8C14.3 21.7 28.7 19.3 43 18.2C57.3 17 71.7 17 86 19.5C100.3 22 114.7 27 128.8 26.2C143 25.3 157 18.7 171.2 16.2C185.3 13.7 199.7 15.3 214 16C228.3 16.7 242.7 16.3 257 19C271.3 21.7 285.7 27.3 292.8 30.2L300 33L300 0L292.8 0C285.7 0 271.3 0 257 0C242.7 0 228.3 0 214 0C199.7 0 185.3 0 171.2 0C157 0 143 0 128.8 0C114.7 0 100.3 0 86 0C71.7 0 57.3 0 43 0C28.7 0 14.3 0 7.2 0L0 0Z" fill="#457b9d" stroke-linecap="round" stroke-linejoin="miter"></path></svg>