<svg id="visual" viewBox="0 0 300 100" width="300" height="100" xmlns="http://www.w3.org/2000/svg" xmlns:xlink="http://www.w3.org/1999/xlink" version="1.1"><path d="M0 80L7.2 77.5C14.3 75 28.7 70 43 67.8C57.3 65.7 71.7 66.3 86 66.8C100.3 67.3 114.7 67.7 128.8 68.5C143 69.3 157 70.7 171.2 69.8C185.3 69 199.7 66 214 64.3C228.3 62.7 242.7 62.3 257 64C271.3 65.7 285.7 69.3 292.8 71.2L300 73L300 101L292.8 101C285.7 101 271.3 101 257 101C242.7 101 228.3 101 214 101C199.7 101 185.3 101 171.2 101C157 101 143 101 128.8 101C114.7 101 100.3 101 86 101C71.7 101 57.3 101 43 101C28.7 101 14.3 101 7.2 101L0 101Z" fill="#457b9d" stroke-linecap="round" stroke-linejoin="miter"></path></svg>