<svg width="1440" height="3887" viewBox="0 0 1440 3887" fill="none" xmlns="http://www.w3.org/2000/svg">
<g clip-path="url(#clip0_10_36)">
<g filter="url(#filter0_f_10_36)">
<path d="M1015.22 560.118C1232.21 560.118 1408.11 1089.37 1408.11 1742.23C1408.11 2395.09 1232.21 2924.33 1015.22 2924.33C798.238 2924.33 622.337 2395.09 622.337 1742.23C622.337 1089.37 798.238 560.118 1015.22 560.118Z" fill="#92BCEA"/>
<path d="M392.884 862.972C609.868 862.972 785.769 1392.22 785.769 2045.08C785.769 2697.94 609.869 3227.19 392.885 3227.19C175.9 3227.19 -6.25129e-05 2697.94 -0.000120804 2045.08C-0.000179095 1392.22 175.9 862.972 392.884 862.972Z" fill="#FFFFE8"/>
<path d="M832.309 0.000820145C1049.29 0.000801176 1225.19 529.249 1225.19 1182.11C1225.19 1834.97 1049.29 2364.22 832.309 2364.22C615.325 2364.22 439.425 1834.97 439.424 1182.11C439.424 529.249 615.325 0.000839114 832.309 0.000820145Z" fill="#92BCEA"/>
<path d="M672.125 1481.71C889.109 1481.71 1065.01 2010.95 1065.01 2663.81C1065.01 3316.67 889.109 3845.92 672.125 3845.92C455.141 3845.92 279.24 3316.67 279.24 2663.81C279.24 2010.95 455.14 1481.71 672.125 1481.71Z" fill="#92BCEA"/>
<path d="M708.924 784.816C925.908 784.816 1101.81 1314.06 1101.81 1966.92C1101.81 2619.78 925.908 3149.03 708.924 3149.03C491.94 3149.03 316.039 2619.78 316.039 1966.92C316.039 1314.06 491.939 784.816 708.924 784.816Z" fill="#FFFFE8"/>
<path d="M1040.12 1520.78C1257.1 1520.78 1433 2050.03 1433 2702.89C1433 3355.75 1257.1 3885 1040.12 3885C823.132 3885 647.231 3355.75 647.231 2702.89C647.231 2050.03 823.131 1520.78 1040.12 1520.78Z" fill="#92BCEA"/>
<g clip-path="url(#clip1_10_36)">
<path d="M1433 3092.27L-14 3092.27L-14 3798.54L1433 3798.54L1433 3092.27Z" fill="#FFFFE8"/>
<path d="M-14 3196.9L20.3662 3202.79C54.8832 3208.67 123.616 3220.44 192.499 3232.61C261.382 3244.9 330.115 3257.46 398.998 3253.79C467.881 3250.13 536.614 3229.99 605.798 3215.87C674.832 3201.74 744.168 3193.37 813.202 3209.72C882.386 3226.07 951.119 3267.14 1020 3291.07C1088.89 3315 1157.62 3322.07 1226.5 3310.03C1295.38 3298 1364.12 3267.14 1398.63 3251.57L1433 3236.14L1433 3092.27L1398.63 3092.27C1364.12 3092.27 1295.38 3092.27 1226.5 3092.27C1157.62 3092.27 1088.89 3092.27 1020 3092.27C951.119 3092.27 882.386 3092.27 813.202 3092.27C744.168 3092.27 674.832 3092.27 605.798 3092.27C536.614 3092.27 467.881 3092.27 398.998 3092.27C330.115 3092.27 261.382 3092.27 192.499 3092.27C123.616 3092.27 54.8832 3092.27 20.3662 3092.27L-14 3092.27L-14 3196.9Z" fill="#92BCEA"/>
</g>
</g>
</g>
<defs>
<filter id="filter0_f_10_36" x="-326" y="-325.999" width="2085" height="4537" filterUnits="userSpaceOnUse" color-interpolation-filters="sRGB">
<feFlood flood-opacity="0" result="BackgroundImageFix"/>
<feBlend mode="normal" in="SourceGraphic" in2="BackgroundImageFix" result="shape"/>
<feGaussianBlur stdDeviation="163" result="effect1_foregroundBlur_10_36"/>
</filter>
<clipPath id="clip0_10_36">
<rect width="1458" height="3933" fill="white" transform="matrix(1 -8.74228e-08 -8.92854e-08 -1 -18 3887)"/>
</clipPath>
<clipPath id="clip1_10_36">
<rect width="1429.05" height="709.554" fill="white" transform="translate(3.95009 3106.66)"/>
</clipPath>
</defs>
</svg>
